<?xml version="1.0" encoding="utf-8"?>
<!-- Generator: Adobe Illustrator 26.0.2, SVG Export Plug-In . SVG Version: 6.00 Build 0)  -->
<svg version="1.1" id="Livello_1" xmlns="http://www.w3.org/2000/svg" xmlns:xlink="http://www.w3.org/1999/xlink" x="0px" y="0px"
	 viewBox="0 0 40 40" style="enable-background:new 0 0 40 40;" xml:space="preserve">
<style type="text/css">
	.st0{fill-rule:evenodd;clip-rule:evenodd;fill:#FFFFFF;}
</style>
<path class="st0" d="M20,0C9,0,0,9,0,20s9,20,20,20s20-9,20-20S31,0,20,0z M29.3,13.6C29,16.8,27.7,24.4,27,28c-0.3,1.5-0.8,2-1.4,2
	c-1.2,0.1-2-0.8-3.2-1.5c-1.8-1.1-2.7-1.9-4.5-3c-2-1.3-0.7-2,0.4-3.2c0.3-0.3,5.4-5,5.5-5.4c0,0,0-0.2-0.1-0.3
	c-0.1-0.1-0.3-0.1-0.4,0c-0.2,0-3,1.9-8.4,5.6c-0.8,0.5-1.5,0.8-2.2,0.8s-2.1-0.4-3.1-0.7c-1.2-0.4-2.2-0.6-2.2-1.3
	c0-0.4,0.5-0.7,1.5-1.1c5.8-2.5,9.7-4.2,11.7-5c5.5-2.3,6.7-2.7,7.5-2.7c0.2,0,0.5,0,0.8,0.2c0.2,0.2,0.2,0.4,0.3,0.5
	C29.3,13,29.3,13.3,29.3,13.6z"/>
</svg>
