<svg width="32" height="32" viewBox="0 0 32 32" fill="none" xmlns="http://www.w3.org/2000/svg">
<path d="M27.5625 8.50313V4.5C27.5625 3.94687 27.1156 3.5 26.5625 3.5H5.43752C4.88439 3.5 4.43752 3.94687 4.43752 4.5V8.50313C3.91564 8.53438 3.50002 8.96875 3.50002 9.5V13.6156C3.49802 14.372 3.65117 15.1208 3.95002 15.8156C4.08439 16.1344 4.25002 16.4344 4.43752 16.7188V27.5C4.43752 28.05 4.88439 28.5 5.43752 28.5H14V23H18V28.5H26.5625C27.1156 28.5 27.5625 28.0531 27.5625 27.5V16.7188C27.753 16.4337 27.9162 16.1313 28.05 15.8156C28.3469 15.1188 28.5 14.3781 28.5 13.6156V9.5C28.5 8.96875 28.0844 8.53438 27.5625 8.50313ZM25.3125 26.2531H20V22C20 21.4469 19.5531 21 19 21H13C12.4469 21 12 21.4469 12 22V26.2531H6.68752V18.6844C6.77814 18.7281 6.87189 18.7719 6.96877 18.8094C7.66564 19.1031 8.40627 19.25 9.16877 19.25C9.93127 19.25 10.6688 19.1031 11.3688 18.8094C11.8 18.6281 12.2063 18.3969 12.5781 18.1187C12.5844 18.1156 12.5906 18.1156 12.5969 18.1187C12.9699 18.3981 13.3761 18.63 13.8063 18.8094C14.5031 19.1031 15.2438 19.25 16.0063 19.25C16.7688 19.25 17.5063 19.1031 18.2063 18.8094C18.6375 18.6281 19.0438 18.3969 19.4156 18.1187C19.4219 18.1156 19.4281 18.1156 19.4344 18.1187C19.8074 18.3981 20.2136 18.63 20.6438 18.8094C21.3406 19.1031 22.0813 19.25 22.8438 19.25C23.6063 19.25 24.3438 19.1031 25.0438 18.8094C25.1375 18.7688 25.2313 18.7281 25.325 18.6844V26.2531H25.3125ZM25.3125 8.5H6.68752V5.75H25.3125V8.5Z" fill="#F65401"/>
</svg>
